<svg xmlns="http://www.w3.org/2000/svg" width="20.8" height="20.8" viewBox="0 0 20.8 20.8">
  <g id="clock-icon" transform="translate(-863 -31)">
    <path id="Path_28" data-name="Path 28" d="M233.735,82.551h-4.1v-6.13a.879.879,0,0,0-1.758,0V83.43a.879.879,0,0,0,.879.879h4.98a.879.879,0,1,0,0-1.758Z" transform="translate(644.382 -41.473)" fill="#fff"/>
    <path id="Path_27" data-name="Path 27" d="M10.4,0A10.4,10.4,0,1,0,20.8,10.4,10.412,10.412,0,0,0,10.4,0Zm0,19.042A8.642,8.642,0,1,1,19.042,10.4,8.652,8.652,0,0,1,10.4,19.042Z" transform="translate(863 31)" fill="#fff"/>
  </g>
</svg>
