<svg xmlns="http://www.w3.org/2000/svg" width="14.999" height="15" viewBox="0 0 14.999 15">
  <g id="discount" transform="translate(-0.01 0)">
    <path id="Path_23" data-name="Path 23" d="M14.321,7.5l.658-1.716a.469.469,0,0,0-.142-.532L13.409,4.094l-.289-1.816a.469.469,0,0,0-.39-.389L10.915,1.6,9.759.173A.469.469,0,0,0,9.227.031L7.51.69,5.794.032a.468.468,0,0,0-.532.142L4.105,1.6,2.289,1.89a.47.47,0,0,0-.389.389L1.612,4.1.184,5.252a.469.469,0,0,0-.142.532L.7,7.5.042,9.217a.468.468,0,0,0,.142.532L1.612,10.9,1.9,12.72a.469.469,0,0,0,.389.39l1.816.289,1.157,1.427a.466.466,0,0,0,.532.142l1.716-.657,1.716.658a.469.469,0,0,0,.532-.143L10.915,13.4l1.816-.289a.47.47,0,0,0,.39-.39l.289-1.816,1.427-1.156a.468.468,0,0,0,.142-.532Z" transform="translate(0 0)" fill="#f44336"/>
    <g id="Group_5" data-name="Group 5" transform="translate(4.698 3.75)">
      <path id="Path_24" data-name="Path 24" d="M161.428,130.847a1.406,1.406,0,1,1,1.406-1.406A1.408,1.408,0,0,1,161.428,130.847Zm0-1.875a.469.469,0,1,0,.469.469A.469.469,0,0,0,161.428,128.972Z" transform="translate(-160.022 -128.034)" fill="#fafafa"/>
      <path id="Path_25" data-name="Path 25" d="M257.428,290.847a1.406,1.406,0,1,1,1.406-1.406A1.408,1.408,0,0,1,257.428,290.847Zm0-1.875a.469.469,0,1,0,.469.469A.47.47,0,0,0,257.428,288.972Z" transform="translate(-253.21 -283.347)" fill="#fafafa"/>
      <path id="Path_26" data-name="Path 26" d="M160.5,135.517a.469.469,0,0,1-.381-.742l4.687-6.562a.469.469,0,0,1,.763.545l-4.687,6.562A.471.471,0,0,1,160.5,135.517Z" transform="translate(-160.036 -128.017)" fill="#fafafa"/>
    </g>
  </g>
</svg>
