<svg id="whatsapp" xmlns="http://www.w3.org/2000/svg" width="21.228" height="21.321" viewBox="0 0 21.228 21.321">
  <path id="Path_6" data-name="Path 6" d="M.454,21.32a.454.454,0,0,1-.438-.573L1.4,15.685a10.572,10.572,0,1,1,9.255,5.46h0a10.593,10.593,0,0,1-4.892-1.2L.569,21.306a.456.456,0,0,1-.115.015Zm0,0" transform="translate(0 0.001)" fill="#e5e5e5"/>
  <path id="Path_7" data-name="Path 7" d="M10.894,31.308l1.435-5.242A10.119,10.119,0,1,1,21.1,31.133h0A10.11,10.11,0,0,1,16.258,29.9Zm5.612-3.238.307.182a8.4,8.4,0,0,0,4.28,1.172h0a8.409,8.409,0,1,0-7.124-3.94l.2.318-.85,3.1Zm0,0" transform="translate(-10.441 -10.441)" fill="#fff"/>
  <path id="Path_8" data-name="Path 8" d="M19.344,39.09l1.386-5.06a9.768,9.768,0,1,1,8.464,4.891h0a9.766,9.766,0,0,1-4.668-1.188Zm0,0" transform="translate(-18.538 -18.576)" fill="#64b161"/>
  <g id="Group_3" data-name="Group 3" transform="translate(0.454 0.454)">
    <path id="Path_9" data-name="Path 9" d="M10.894,31.308l1.435-5.242A10.119,10.119,0,1,1,21.1,31.133h0A10.11,10.11,0,0,1,16.258,29.9Zm5.612-3.238.307.182a8.4,8.4,0,0,0,4.28,1.172h0a8.409,8.409,0,1,0-7.124-3.94l.2.318-.85,3.1Zm0,0" transform="translate(-10.894 -10.895)" fill="#fff"/>
    <path id="Path_10" data-name="Path 10" d="M135.058,142.056c-.189-.421-.389-.429-.569-.437-.147-.006-.316-.006-.484-.006a.929.929,0,0,0-.674.316,2.834,2.834,0,0,0-.885,2.108,4.917,4.917,0,0,0,1.032,2.615,10.377,10.377,0,0,0,4.319,3.816c2.136.842,2.57.675,3.034.633a2.553,2.553,0,0,0,1.706-1.2,2.111,2.111,0,0,0,.148-1.2c-.063-.105-.232-.169-.485-.295s-1.5-.738-1.728-.822-.4-.126-.569.127-.653.822-.8.991-.3.19-.548.064a6.913,6.913,0,0,1-2.033-1.255,7.616,7.616,0,0,1-1.407-1.751c-.147-.253,0-.378.111-.516a7.626,7.626,0,0,0,.632-.864.466.466,0,0,0-.021-.443C135.774,143.806,135.283,142.556,135.058,142.056Zm0,0" transform="translate(-127.384 -136.17)" fill="#fff" fill-rule="evenodd"/>
  </g>
</svg>
