<svg xmlns="http://www.w3.org/2000/svg" width="71" height="85.2" viewBox="0 0 71 85.2">
  <g id="pie-chart" transform="translate(-2)">
    <path id="Path_56" data-name="Path 56" d="M64.125,85.2H10.875A8.887,8.887,0,0,1,2,76.325V8.875A8.887,8.887,0,0,1,10.875,0h53.25A8.887,8.887,0,0,1,73,8.875v67.45A8.887,8.887,0,0,1,64.125,85.2ZM10.875,3.55A5.332,5.332,0,0,0,5.55,8.875v67.45a5.332,5.332,0,0,0,5.325,5.325h53.25a5.332,5.332,0,0,0,5.325-5.325V8.875A5.332,5.332,0,0,0,64.125,3.55Z" fill="#a1ca2d"/>
    <path id="Path_57" data-name="Path 57" d="M24.875,14.55h-7.1a1.775,1.775,0,0,1,0-3.55h7.1a1.775,1.775,0,0,1,0,3.55Z" transform="translate(35.7 28.05)" fill="#a1ca2d"/>
    <path id="Path_58" data-name="Path 58" d="M24.875,11.55h-7.1a1.775,1.775,0,0,1,0-3.55h7.1a1.775,1.775,0,0,1,0,3.55Z" transform="translate(35.7 20.4)" fill="#a1ca2d"/>
    <path id="Path_59" data-name="Path 59" d="M24.875,17.55h-7.1a1.775,1.775,0,0,1,0-3.55h7.1a1.775,1.775,0,0,1,0,3.55Z" transform="translate(35.7 35.7)" fill="#a1ca2d"/>
    <path id="Path_60" data-name="Path 60" d="M24.875,20.55h-7.1a1.775,1.775,0,0,1,0-3.55h7.1a1.775,1.775,0,0,1,0,3.55Z" transform="translate(35.7 43.35)" fill="#a1ca2d"/>
    <path id="Path_61" data-name="Path 61" d="M52.925,23.55H6.775a1.775,1.775,0,0,1,0-3.55h46.15a1.775,1.775,0,0,1,0,3.55Z" transform="translate(7.65 51)" fill="#a1ca2d"/>
    <path id="Path_62" data-name="Path 62" d="M22.75,43.5A17.75,17.75,0,1,1,40.5,25.75,17.77,17.77,0,0,1,22.75,43.5Zm0-31.95a14.2,14.2,0,1,0,14.2,14.2A14.214,14.214,0,0,0,22.75,11.55Z" transform="translate(7.65 20.4)" fill="#a1ca2d"/>
    <path id="Path_63" data-name="Path 63" d="M8.094,38.821a1.773,1.773,0,0,1-1.257-3.028L17.615,25.015V9.775a1.775,1.775,0,1,1,3.55,0V25.75a1.788,1.788,0,0,1-.518,1.257L9.35,38.3A1.783,1.783,0,0,1,8.094,38.821Z" transform="translate(11.01 20.4)" fill="#a1ca2d"/>
  </g>
</svg>
