<svg xmlns="http://www.w3.org/2000/svg" width="83.436" height="85" viewBox="0 0 83.436 85">
  <g id="science" transform="translate(-4.71)">
    <path id="Path_64" data-name="Path 64" d="M144.845,18.36a5.164,5.164,0,1,1,0-10.328h28.293a5.164,5.164,0,1,1,0,10.328H144.845Z" transform="translate(-112.563 -6.699)" fill="#fff"/>
    <path id="Path_65" data-name="Path 65" d="M18.949,138.9a6.186,6.186,0,0,1-5.357-9.278l26.9-46.584V66.229H65.784V83.038l26.9,46.584a6.186,6.186,0,0,1-5.357,9.278Zm63.336-9.1L60.393,91.889H45.88L23.988,129.806Z" transform="translate(-6.709 -55.234)" fill="#fff"/>
    <g id="Group_12" data-name="Group 12" transform="translate(41.403 42.682)">
      <path id="Path_66" data-name="Path 66" d="M230.991,267.607a5.257,5.257,0,1,1,5.257-5.257A5.262,5.262,0,0,1,230.991,267.607Z" transform="translate(-225.736 -257.094)" fill="#9fc82c"/>
      <path id="Path_67" data-name="Path 67" d="M296.988,353.918a3.577,3.577,0,1,1,3.577-3.577A3.582,3.582,0,0,1,296.988,353.918Z" transform="translate(-282.175 -331.878)" fill="#a0c82d"/>
    </g>
    <path id="Path_68" data-name="Path 68" d="M73.468,256.026l22.662-39.25h15.283l22.661,39.25Zm20.514-13.182a2.91,2.91,0,1,0,2.912,2.91A2.913,2.913,0,0,0,93.982,242.844Zm19.578-3.822a2.91,2.91,0,1,0,2.91,2.91A2.914,2.914,0,0,0,113.56,239.023ZM104,224.136a4.59,4.59,0,1,0,4.59,4.59A4.594,4.594,0,0,0,104,224.136Z" transform="translate(-57.344 -180.788)" fill="#a0c92d"/>
    <path id="Path_69" data-name="Path 69" d="M179.068,376.938a3.577,3.577,0,1,1,3.578-3.577A3.581,3.581,0,0,1,179.068,376.938Z" transform="translate(-142.429 -308.395)" fill="#a0c92d"/>
    <path id="Path_70" data-name="Path 70" d="M107.191,209.578a1.667,1.667,0,0,0-1.443-.833h-14.9a1.666,1.666,0,0,0-1.443.833L67.129,248.162a1.667,1.667,0,0,0,1.443,2.5h59.452a1.667,1.667,0,0,0,1.443-2.5ZM71.46,247.328l20.352-35.25h12.974l20.352,35.25Z" transform="translate(-51.871 -174.09)" fill="#a0c92d"/>
    <path id="Path_71" data-name="Path 71" d="M60.408,27.447V13h.167a6.5,6.5,0,1,0,0-13H32.282a6.5,6.5,0,1,0,0,12.995h.165V27.447L5.728,73.722A7.52,7.52,0,0,0,12.24,85H80.615a7.52,7.52,0,0,0,6.512-11.278ZM30.045,8.736a3.164,3.164,0,0,1,2.237-5.4H60.575a3.164,3.164,0,1,1,0,6.328H32.282A3.149,3.149,0,0,1,30.045,8.736ZM84.24,79.574a4.143,4.143,0,0,1-3.624,2.093H12.24a4.186,4.186,0,0,1-3.625-6.278L35.557,28.727a1.667,1.667,0,0,0,.223-.833V13h9.212v8.727a1.667,1.667,0,1,0,3.333,0V13h8.75v14.9a1.667,1.667,0,0,0,.223.833L84.24,75.389A4.142,4.142,0,0,1,84.24,79.574Z" fill="#a0c92d"/>
    <path id="Path_72" data-name="Path 72" d="M224.293,249.063a6.59,6.59,0,1,0,6.59,6.59A6.6,6.6,0,0,0,224.293,249.063Zm0,9.847a3.257,3.257,0,1,1,3.257-3.257A3.26,3.26,0,0,1,224.293,258.91Z" transform="translate(-177.635 -207.715)" fill="#fff"/>
    <path id="Path_73" data-name="Path 73" d="M172.369,361.753a4.91,4.91,0,1,0,4.912,4.91A4.916,4.916,0,0,0,172.369,361.753Zm0,6.487a1.577,1.577,0,1,1,1.578-1.577A1.579,1.579,0,0,1,172.369,368.24Z" transform="translate(-135.731 -301.696)" fill="#fff"/>
    <path id="Path_74" data-name="Path 74" d="M285.38,343.643a4.911,4.911,0,1,0,4.912-4.91A4.917,4.917,0,0,0,285.38,343.643Zm4.912-1.577a1.577,1.577,0,1,1-1.578,1.577A1.579,1.579,0,0,1,290.292,342.066Z" transform="translate(-234.075 -282.498)" fill="#fff"/>
    <path id="Path_75" data-name="Path 75" d="M249.3,155.26a1.668,1.668,0,0,0,0-3.333A1.668,1.668,0,0,0,249.3,155.26Z" transform="translate(-202.644 -126.705)" fill="#a0c92d"/>
  </g>
</svg>
