<svg xmlns="http://www.w3.org/2000/svg" width="84.879" height="84.91" viewBox="0 0 84.879 84.91">
  <g id="Virus_Cleaning" data-name="Virus Cleaning" transform="translate(0 0.247)">
    <g id="Outline" transform="translate(0 -0.247)">
      <path id="Path_76" data-name="Path 76" d="M281.267,13.056v5.3a7.746,7.746,0,0,0,6.631,8.005v1.278a1.326,1.326,0,0,0,2.652,0v-2.18c2.967-5.93.622-15.061-6.091-15.061h-1.485c2.719-8.133,10.819-9.6,16.23-6.393a1.326,1.326,0,0,0,1.351-2.283,13.717,13.717,0,0,0-20.608,9.785,1.326,1.326,0,0,0,.3,1.075,1.3,1.3,0,0,0,1.024.469Zm2.652,0h.54c4.374,0,5.684,6.551,3.951,10.7a5.13,5.13,0,0,1-4.491-5.4Z" transform="translate(-233.523 0.247)" fill="#a0c92d"/>
      <path id="Path_77" data-name="Path 77" d="M50.652,281.378a1.326,1.326,0,0,0-2.652,0A1.326,1.326,0,0,0,50.652,281.378Z" transform="translate(-40.043 -233.592)" fill="#a0c92d"/>
      <path id="Path_78" data-name="Path 78" d="M17.373,266.652a1.326,1.326,0,0,0,0-2.652A1.326,1.326,0,0,0,17.373,266.652Z" transform="translate(-13.394 -220.193)" fill="#a0c92d"/>
      <path id="Path_79" data-name="Path 79" d="M49.378,344a1.326,1.326,0,0,0,0,2.652A1.326,1.326,0,0,0,49.378,344Z" transform="translate(-40.094 -286.931)" fill="#a0c92d"/>
      <path id="Path_80" data-name="Path 80" d="M16,361.373a1.326,1.326,0,0,0,2.652,0A1.326,1.326,0,0,0,16,361.373Z" transform="translate(-13.348 -300.325)" fill="#a0c92d"/>
      <path id="Path_81" data-name="Path 81" d="M64,313.373a1.326,1.326,0,0,0,2.652,0A1.326,1.326,0,0,0,64,313.373Z" transform="translate(-53.39 -260.282)" fill="#a0c92d"/>
      <path id="Path_82" data-name="Path 82" d="M0,313.373a1.326,1.326,0,0,0,2.652,0A1.326,1.326,0,0,0,0,313.373Z" transform="translate(0 -260.282)" fill="#a0c92d"/>
      <path id="Path_83" data-name="Path 83" d="M33.378,312a1.326,1.326,0,0,0,0,2.652A1.326,1.326,0,0,0,33.378,312Z" transform="translate(-26.746 -260.236)" fill="#a0c92d"/>
      <path id="Path_84" data-name="Path 84" d="M163.638,78.014H150.376c-1.383,0-1.32,1.478-1.326,1.495a21.772,21.772,0,0,0-2.774-3.266c5.842-2.582,8.412-7.634,7.391-13.432a1.326,1.326,0,0,0-2.612.46c1.6,9.08-7.415,10.9-8.138,11.446a1.325,1.325,0,0,0-.129,2c.394.388,6.263,4.764,6.263,10.578.035,17.792-.087,17.328.1,18.279-.244.582.3,4.96-3.653,8.6-.728.67-.312,1.431-.429,4.955a1.326,1.326,0,0,0,2.652,0v-3.415a13.677,13.677,0,0,0,3.672-6.774,5.4,5.4,0,0,0,3.074.9c.465,8.747-3.822,14.589-13.377,14.589-10.988,0-16.239-14.378-17.148-17.148,9.767-4.911,9.615-4.647,9.961-5.114L144,88.56a1.326,1.326,0,0,0-2.131-1.58l-9.9,13.355-5.876,2.922-1.911-4.789c5.578-2.994,5.465-2.785,5.776-3.19l8.354-10.908a1.326,1.326,0,0,0-2.105-1.613l-8.178,10.678c-6.684,3.833-9.173,4.055-11.005,7.125H97.326A1.326,1.326,0,0,0,96,101.886v5.3a1.326,1.326,0,0,0,1.326,1.326h19.588c1.292,2.3,2.08,1.179,4.628-.039,3.118,9.222,9.8,18.606,19.549,18.606,11.156,0,16.537-7.213,16.039-17.241h2.529a5.311,5.311,0,0,0,5.3-5.3V79.34A1.326,1.326,0,0,0,163.638,78.014Zm-47.645,27.851H98.652v-2.652h17.371A7.929,7.929,0,0,0,115.993,105.865Zm3.011.914a5.282,5.282,0,0,1-.32-3.344,5.5,5.5,0,0,1,3.133-3.72l1.887,4.727Zm43.307-18.155H151.7V80.667h2.652v2.652a1.326,1.326,0,0,0,2.652,0V80.667h5.3Z" transform="translate(-80.085 -51.448)" fill="#a0c92d"/>
      <path id="Path_85" data-name="Path 85" d="M97.378,130.652a1.326,1.326,0,0,0,0-2.652A1.326,1.326,0,0,0,97.378,130.652Z" transform="translate(-80.137 -106.739)" fill="#a0c92d"/>
      <path id="Path_86" data-name="Path 86" d="M0,89.378a1.326,1.326,0,0,0,2.652,0A1.326,1.326,0,0,0,0,89.378Z" transform="translate(0 -73.422)" fill="#a0c92d"/>
      <path id="Path_87" data-name="Path 87" d="M129.378,88a1.326,1.326,0,0,0,0,2.652A1.326,1.326,0,0,0,129.378,88Z" transform="translate(-106.832 -73.37)" fill="#a0c92d"/>
      <path id="Path_88" data-name="Path 88" d="M64,57.378a1.326,1.326,0,0,0,2.652,0A1.326,1.326,0,0,0,64,57.378Z" transform="translate(-53.39 -46.727)" fill="#a0c92d"/>
      <path id="Path_89" data-name="Path 89" d="M18.619,18.494a1.328,1.328,0,0,0,.938-2.264l-2.039-2.039a6.592,6.592,0,0,0,.969-2.328H22.6a1.326,1.326,0,0,0,0-2.652H18.486a6.592,6.592,0,0,0-.968-2.328l3.365-3.365a1.326,1.326,0,0,0-1.876-1.876L15.643,5.007a6.592,6.592,0,0,0-2.329-.968V1.253a1.326,1.326,0,0,0-2.652,0V4.039a6.589,6.589,0,0,0-2.213.9L5.091.457A1.326,1.326,0,0,0,2.969,2.049L6.522,6.787A6.6,6.6,0,0,0,5.49,9.21H1.378a1.326,1.326,0,0,0,0,2.652H5.49A6.615,6.615,0,0,0,7.035,14.94L4.419,17.556a1.326,1.326,0,0,0,1.876,1.876l2.889-2.888a6.577,6.577,0,0,0,1.479.492v5.438a1.326,1.326,0,0,0,2.652,0V17.035a6.592,6.592,0,0,0,2.328-.968C17.518,17.794,17.707,18.494,18.619,18.494Zm-6.631-3.979a3.979,3.979,0,1,1,3.979-3.979A3.979,3.979,0,0,1,11.988,14.515Z" transform="translate(-0.051 0.114)" fill="#a0c92d"/>
      <path id="Path_90" data-name="Path 90" d="M209.378,98.652a1.326,1.326,0,0,0,0-2.652A1.326,1.326,0,0,0,209.378,98.652Z" transform="translate(-173.569 -80.044)" fill="#a0c92d"/>
      <path id="Path_91" data-name="Path 91" d="M121.378,218.652a1.326,1.326,0,0,0,0-2.652A1.326,1.326,0,0,0,121.378,218.652Z" transform="translate(-100.158 -180.151)" fill="#a0c92d"/>
      <path id="Path_92" data-name="Path 92" d="M249.373,218.652a1.326,1.326,0,0,0,0-2.652A1.326,1.326,0,0,0,249.373,218.652Z" transform="translate(-206.933 -180.151)" fill="#a0c92d"/>
      <path id="Path_94" data-name="Path 94" d="M418.652,33.378a1.326,1.326,0,0,0-2.652,0A1.326,1.326,0,0,0,418.652,33.378Z" transform="translate(-347.036 -26.705)" fill="#a0c92d"/>
      <path id="Path_95" data-name="Path 95" d="M122.969,130.122l3.553,4.738a6.6,6.6,0,0,0-1.033,2.424h-4.112a1.326,1.326,0,0,0,0,2.652h4.112a6.615,6.615,0,0,0,1.545,3.077l-2.617,2.617a1.328,1.328,0,0,0,.938,2.264c.946,0,1.151-.763,3.826-3.277a6.577,6.577,0,0,0,1.479.492v5.438a1.326,1.326,0,0,0,2.652,0v-5.438a6.592,6.592,0,0,0,2.328-.968c1.877,1.727,2.065,2.427,2.977,2.427a1.328,1.328,0,0,0,.938-2.264l-2.039-2.039a6.592,6.592,0,0,0,.969-2.328H142.6a1.326,1.326,0,0,0,0-2.652h-4.111a6.592,6.592,0,0,0-.968-2.328l3.365-3.365a1.326,1.326,0,0,0-1.876-1.876l-3.365,3.365a6.592,6.592,0,0,0-2.329-.968v-2.786a1.326,1.326,0,0,0-2.652,0v2.786a6.588,6.588,0,0,0-2.213.894l-3.357-4.476a1.326,1.326,0,0,0-2.122,1.591Z" transform="translate(-100.158 -106.739)" fill="#a0c92d"/>
      <path id="Path_96" data-name="Path 96" d="M328,313.378V326.64a1.326,1.326,0,0,0,2.652,0V313.378A1.326,1.326,0,0,0,328,313.378Z" transform="translate(-273.624 -260.287)" fill="#a0c92d"/>
      <path id="Path_97" data-name="Path 97" d="M328,465.378v5.3a1.326,1.326,0,0,0,2.652,0v-5.3A1.326,1.326,0,0,0,328,465.378Z" transform="translate(-273.624 -387.089)" fill="#a0c92d"/>
      <path id="Path_98" data-name="Path 98" d="M392,465.378v5.3a1.326,1.326,0,0,0,2.652,0v-5.3A1.326,1.326,0,0,0,392,465.378Z" transform="translate(-327.014 -387.089)" fill="#a0c92d"/>
    </g>
  </g>
</svg>
