<svg xmlns="http://www.w3.org/2000/svg" width="66.718" height="87" viewBox="0 0 66.718 87">
  <path id="chemistry" d="M66.029,73.116l-19.558-35.2V5.1H49.02a2.549,2.549,0,0,0,0-5.1H18.434a2.549,2.549,0,1,0,0,5.1h2.549V37.919L1.664,73.162A9.345,9.345,0,0,0,9.859,87h48a9.345,9.345,0,0,0,8.17-13.884ZM57.858,81.9h-48a4.248,4.248,0,0,1-3.725-6.29C27.357,36.9,26.08,39.508,26.08,38.572V5.1H41.373v5.438H38.824a2.549,2.549,0,1,0,0,5.1h2.549v5.1H33.727a2.549,2.549,0,0,0,0,5.1h7.646v5.1H38.824a2.549,2.549,0,1,0,0,5.1h2.549v2.549c0,.947-1.287-1.655,20.2,37.019A4.248,4.248,0,0,1,57.858,81.9Zm0,0" transform="translate(-0.5)" fill="#fff"/>
</svg>
