<svg xmlns="http://www.w3.org/2000/svg" width="66.797" height="90" viewBox="0 0 66.797 90">
  <g id="medal" transform="translate(-0.5)">
    <path id="Path_38" data-name="Path 38" d="M40.5,66.367A26.367,26.367,0,1,0,66.867,40,26.4,26.4,0,0,0,40.5,66.367ZM66.867,43.516A22.852,22.852,0,1,1,44.016,66.367,22.877,22.877,0,0,1,66.867,43.516Zm0,0" transform="translate(-32.969 -32.969)" fill="#fff"/>
    <path id="Path_39" data-name="Path 39" d="M95.433,106.8l6.814,6.713-1.568,9.435a1.758,1.758,0,0,0,2.544,1.848l8.489-4.408L120.2,124.8a1.758,1.758,0,0,0,2.544-1.848l-1.568-9.435,6.814-6.713a1.758,1.758,0,0,0-.972-2.99l-9.456-1.423-4.279-8.556a1.758,1.758,0,0,0-3.144,0l-4.278,8.556-9.456,1.423a1.758,1.758,0,0,0-.972,2.99Zm11.854-1.073a1.758,1.758,0,0,0,1.311-.952l3.114-6.229,3.114,6.229a1.759,1.759,0,0,0,1.311.952l6.882,1.036-4.96,4.886a1.761,1.761,0,0,0-.5,1.541l1.141,6.867-6.178-3.208a1.757,1.757,0,0,0-1.62,0l-6.178,3.208,1.141-6.867a1.757,1.757,0,0,0-.5-1.541l-4.959-4.886Zm0,0" transform="translate(-77.813 -76.537)" fill="#fff"/>
    <path id="Path_40" data-name="Path 40" d="M184.016,1.758A1.758,1.758,0,1,1,182.258,0,1.758,1.758,0,0,1,184.016,1.758Zm0,0" transform="translate(-148.359)" fill="#fff"/>
    <path id="Path_41" data-name="Path 41" d="M25.614,5.636a33.4,33.4,0,0,0-14.12,57.128L.9,81.428a1.758,1.758,0,0,0,1.886,2.589l12.027-2.5L19.044,93.43a1.757,1.757,0,0,0,3.184.281L33.9,73.194l11.67,20.517A1.757,1.757,0,0,0,47.1,94.6c.051,0,.1,0,.155-.006a1.76,1.76,0,0,0,1.5-1.163l4.226-11.911,12.027,2.5a1.758,1.758,0,0,0,1.886-2.589L56.3,62.764A33.4,33.4,0,0,0,42.183,5.636a1.758,1.758,0,1,0-.87,3.406,29.883,29.883,0,1,1-14.83,0,1.758,1.758,0,1,0-.869-3.406Zm-4.541,83L17.618,78.9A1.758,1.758,0,0,0,15.6,77.765L5.879,79.784,14.26,65.013a33.47,33.47,0,0,0,16.69,6.253Zm31.12-10.868A1.758,1.758,0,0,0,50.178,78.9l-3.454,9.735L36.846,71.266a33.472,33.472,0,0,0,16.691-6.253l8.381,14.771Zm0,0" transform="translate(0 -4.6)" fill="#fff"/>
  </g>
</svg>
