<svg id="Group_9" data-name="Group 9" xmlns="http://www.w3.org/2000/svg" width="66.451" height="88.036" viewBox="0 0 66.451 88.036">
  <g id="Group_8" data-name="Group 8" transform="translate(0)">
    <path id="Path_31" data-name="Path 31" d="M180.171,162.627a6.228,6.228,0,0,0-2.141-1.16,12.631,12.631,0,0,0-2.765-.268h-4.1a2.362,2.362,0,0,0-1.516.446,2.192,2.192,0,0,0-.446,1.516v11.506a2.645,2.645,0,0,0,.178,1.249,1.108,1.108,0,0,0,.535.714,2.507,2.507,0,0,0,1.338.268h4.1a13.359,13.359,0,0,0,1.962-.178,10.783,10.783,0,0,0,1.606-.446,5,5,0,0,0,1.338-.892,7.992,7.992,0,0,0,1.338-1.695,7.619,7.619,0,0,0,.8-2.141,11.525,11.525,0,0,0,.268-2.587C182.669,166.195,181.866,164.054,180.171,162.627Zm-2.319,11.06a3.615,3.615,0,0,1-.8.446,3.927,3.927,0,0,1-.892.178H172.5v-10.7h2.141a7.033,7.033,0,0,1,2.5.357,2.786,2.786,0,0,1,1.695,1.516,7.236,7.236,0,0,1,.714,3.479C179.458,171.279,178.922,172.8,177.852,173.687Z" transform="translate(-142.263 -125.254)" fill="#fff"/>
    <path id="Path_32" data-name="Path 32" d="M114.673,17.572l-.089-.089v-.089L97.636.446,97.547.357a.087.087,0,0,1-.089-.089.087.087,0,0,1-.089-.089A1.467,1.467,0,0,0,96.477,0H54.465a5.936,5.936,0,0,0-4.192,1.695l-.089.089A6.229,6.229,0,0,0,48.4,6.065V81.971a6.065,6.065,0,0,0,1.784,4.281,6.229,6.229,0,0,0,4.281,1.784h54.32a6.065,6.065,0,0,0,4.281-1.784,6.229,6.229,0,0,0,1.784-4.281V18.464A2.639,2.639,0,0,0,114.673,17.572ZM98.171,6.422,108.25,16.5h-7.4a2.429,2.429,0,0,1-1.873-.8,2.781,2.781,0,0,1-.8-1.873Zm12.844,75.549A2.447,2.447,0,0,1,108.7,84.29H54.465a2.564,2.564,0,0,1-1.606-.624,2.149,2.149,0,0,1-.624-1.606V5.976a2.234,2.234,0,0,1,.714-1.606l.089-.089a2.53,2.53,0,0,1,1.516-.624h39.96V13.736a6.478,6.478,0,0,0,1.962,4.638,6.614,6.614,0,0,0,4.638,1.873h9.9V81.971Z" transform="translate(-48.4)" fill="#fff"/>
    <path id="Path_33" data-name="Path 33" d="M114.125,162.76a3.444,3.444,0,0,0-1.695-.892,11.054,11.054,0,0,0-2.765-.268h-4.1a2.192,2.192,0,0,0-1.516.446c-.357.268-.446.8-.446,1.516v12.131a2.27,2.27,0,0,0,.446,1.427,1.37,1.37,0,0,0,1.16.446,1.57,1.57,0,0,0,1.16-.535,2.27,2.27,0,0,0,.446-1.427v-4.46h2.943a6.72,6.72,0,0,0,4.371-1.249,4.513,4.513,0,0,0,1.516-3.657,5.233,5.233,0,0,0-.357-2.051A6.229,6.229,0,0,0,114.125,162.76Zm-2.141,4.995a2.265,2.265,0,0,1-1.16.8,5.93,5.93,0,0,1-1.873.268h-2.141v-4.817h2.141a4.411,4.411,0,0,1,2.854.714,2.221,2.221,0,0,1,.624,1.695A2.97,2.97,0,0,1,111.984,167.755Z" transform="translate(-91.291 -125.565)" fill="#fff"/>
    <path id="Path_34" data-name="Path 34" d="M243.962,160.8a2.964,2.964,0,0,0-1.16.357,1.077,1.077,0,0,0-.624.624,2.108,2.108,0,0,0-.178,1.16v12.041a2.094,2.094,0,0,0,.446,1.427,1.37,1.37,0,0,0,1.16.446,1.879,1.879,0,0,0,1.16-.446,2.269,2.269,0,0,0,.446-1.427v-5.173h5.263a1.422,1.422,0,0,0,1.07-.357,1.034,1.034,0,0,0,.357-.892,1.145,1.145,0,0,0-.357-.892,1.913,1.913,0,0,0-1.07-.357h-5.263V163.3h6.244a1.514,1.514,0,0,0,1.16-.357,1.293,1.293,0,0,0,0-1.784,1.513,1.513,0,0,0-1.16-.357Z" transform="translate(-198.829 -124.943)" fill="#fff"/>
  </g>
</svg>
