<svg xmlns="http://www.w3.org/2000/svg" width="74.223" height="88.036" viewBox="0 0 74.223 88.036">
  <path id="Path_30" data-name="Path 30" d="M112.553,10.469,78.021.109a2.577,2.577,0,0,0-1.482,0L42.006,10.469a2.579,2.579,0,0,0-1.838,2.47V50.925c0,4.941,2,10,5.945,15.032A61.458,61.458,0,0,0,58.5,77.432,111.136,111.136,0,0,0,76.226,87.811a2.578,2.578,0,0,0,2.108,0A111.139,111.139,0,0,0,96.058,77.432a61.461,61.461,0,0,0,12.388-11.475c3.945-5.034,5.945-10.092,5.945-15.032V12.939A2.579,2.579,0,0,0,112.553,10.469Zm-3.32,40.456c0,8.744-8.773,16.943-16.133,22.281a109.208,109.208,0,0,1-15.82,9.4,109.206,109.206,0,0,1-15.82-9.4C54.1,67.867,45.326,59.668,45.326,50.925V14.858L77.28,5.272l31.953,9.586Z" transform="translate(-40.168 0)" fill="#fff"/>
</svg>
